<?xml version="1.0" encoding="utf-8"?>
<!-- Generator: Adobe Illustrator 15.0.2, SVG Export Plug-In . SVG Version: 6.00 Build 0)  -->
<!DOCTYPE svg PUBLIC "-//W3C//DTD SVG 1.1//EN" "http://www.w3.org/Graphics/SVG/1.1/DTD/svg11.dtd">
<svg version="1.1" id="Layer_1" xmlns="http://www.w3.org/2000/svg" xmlns:xlink="http://www.w3.org/1999/xlink" x="0px" y="0px"
	 width="16px" height="16px" viewBox="32.5 25.5 16 16" enable-background="new 32.5 25.5 16 16" xml:space="preserve">
<rect x="-102.5" y="-66.5" display="none" fill="#E2E2E2" width="297" height="167"/>
<g id="Layer_1_1_" display="none">
	<path display="inline" d="M8,0C3.582,0,0,3.582,0,8s3.582,8,8,8s8-3.582,8-8S12.418,0,8,0z M8,14.871
		c-3.795,0-6.871-3.076-6.871-6.871S4.205,1.129,8,1.129S14.871,4.205,14.871,8S11.795,14.871,8,14.871z"/>
	<polygon display="inline" points="10.711,3.965 8,6.676 5.289,3.965 3.757,5.497 6.468,8.208 3.757,10.919 5.29,12.451 8,9.74 
		10.71,12.451 12.243,10.919 9.533,8.208 12.243,5.498 	"/>
</g>
<circle fill="#FFFFFF" cx="40.5" cy="33.5" r="8"/>
<polygon points="37.5,29.5 37.5,31.5 41.012,31.5 36.086,36.086 37.5,37.5 42.5,32.846 42.5,36.5 44.5,36.5 44.5,29.5 "/>
</svg>
